<svg width="31" height="30" viewBox="0 0 31 30" fill="none" xmlns="http://www.w3.org/2000/svg">
<path d="M18.375 26.25C17.6846 26.25 17.125 25.6904 17.125 25V15C17.125 14.3096 17.6846 13.75 18.375 13.75H25.875C26.5654 13.75 27.125 14.3096 27.125 15V25C27.125 25.6904 26.5654 26.25 25.875 26.25H18.375ZM5.875 16.25C5.18465 16.25 4.625 15.6904 4.625 15V5C4.625 4.30965 5.18465 3.75 5.875 3.75H13.375C14.0654 3.75 14.625 4.30965 14.625 5V15C14.625 15.6904 14.0654 16.25 13.375 16.25H5.875ZM12.125 13.75V6.25H7.125V13.75H12.125ZM5.875 26.25C5.18465 26.25 4.625 25.6904 4.625 25V20C4.625 19.3096 5.18465 18.75 5.875 18.75H13.375C14.0654 18.75 14.625 19.3096 14.625 20V25C14.625 25.6904 14.0654 26.25 13.375 26.25H5.875ZM7.125 23.75H12.125V21.25H7.125V23.75ZM19.625 23.75H24.625V16.25H19.625V23.75ZM17.125 5C17.125 4.30965 17.6846 3.75 18.375 3.75H25.875C26.5654 3.75 27.125 4.30965 27.125 5V10C27.125 10.6904 26.5654 11.25 25.875 11.25H18.375C17.6846 11.25 17.125 10.6904 17.125 10V5ZM19.625 6.25V8.75H24.625V6.25H19.625Z" fill="#A6A3A4"/>
</svg>
