<svg width="31" height="30" viewBox="0 0 31 30" fill="none" xmlns="http://www.w3.org/2000/svg">
<path d="M4.625 15C4.625 15.6904 5.18465 16.25 5.875 16.25H13.375C14.0654 16.25 14.625 15.6904 14.625 15V5C14.625 4.30965 14.0654 3.75 13.375 3.75H5.875C5.18465 3.75 4.625 4.30965 4.625 5V15ZM4.625 25C4.625 25.6904 5.18465 26.25 5.875 26.25H13.375C14.0654 26.25 14.625 25.6904 14.625 25V20C14.625 19.3096 14.0654 18.75 13.375 18.75H5.875C5.18465 18.75 4.625 19.3096 4.625 20V25ZM17.125 25C17.125 25.6904 17.6846 26.25 18.375 26.25H25.875C26.5654 26.25 27.125 25.6904 27.125 25V15C27.125 14.3096 26.5654 13.75 25.875 13.75H18.375C17.6846 13.75 17.125 14.3096 17.125 15V25ZM18.375 3.75C17.6846 3.75 17.125 4.30965 17.125 5V10C17.125 10.6904 17.6846 11.25 18.375 11.25H25.875C26.5654 11.25 27.125 10.6904 27.125 10V5C27.125 4.30965 26.5654 3.75 25.875 3.75H18.375Z" fill="black"/>
</svg>
