<svg width="26" height="25" viewBox="0 0 26 25" fill="none" xmlns="http://www.w3.org/2000/svg">
<path d="M12.9138 2.5C15.6752 2.5 17.9138 4.73858 17.9138 7.5C17.9138 8.18054 17.7784 8.82737 17.5336 9.41674C15.4823 9.63645 13.5436 10.6982 12.2643 12.4584C10.6903 12.2543 9.34477 11.3183 8.58153 9.99839C8.1571 9.26437 7.9138 8.41248 7.9138 7.5C7.9138 4.73858 10.1524 2.5 12.9138 2.5ZM20.1182 9.5906C20.3107 8.92639 20.4138 8.2247 20.4138 7.5C20.4138 3.35786 17.0559 1.25e-06 12.9138 0C8.77166 -1.25e-06 5.4138 3.35786 5.4138 7.5C5.4138 8.22473 5.51691 8.92645 5.70941 9.59068C5.03801 9.7561 4.37882 10.0176 3.75126 10.38C0.164058 12.451 -1.065 17.0379 1.00606 20.6252C3.07713 24.2124 7.66406 25.4414 11.2512 23.3704C11.8788 23.008 12.4349 22.5679 12.9138 22.0692C13.3928 22.5679 13.9488 23.0079 14.5763 23.3703C18.1636 25.4413 22.7504 24.2123 24.8216 20.625C26.8926 17.0379 25.6636 12.4509 22.0763 10.3799C21.4488 10.0176 20.7896 9.75602 20.1182 9.5906ZM14.3567 19.9179C15.1922 18.0315 15.2422 15.8215 14.3574 13.8335C15.3212 12.5723 16.8044 11.875 18.3291 11.874C19.1768 11.8735 20.0362 12.0888 20.8263 12.5449C23.2178 13.9257 24.0372 16.9837 22.6564 19.375C21.2757 21.7665 18.2178 22.5859 15.8263 21.2052C15.2371 20.865 14.7447 20.4245 14.3567 19.9179ZM12.1199 14.9587C12.7303 16.4239 12.5924 18.0572 11.8309 19.378C11.4074 20.1125 10.7914 20.749 10.0013 21.2053C7.6098 22.586 4.55185 21.7667 3.17113 19.3752C1.79042 16.9837 2.6098 13.9258 5.00126 12.545C5.5906 12.2048 6.2184 11.9985 6.8512 11.9159C8.06716 13.5825 9.95598 14.7308 12.1199 14.9587Z" fill="#A6A3A4"/>
</svg>
