<svg width="24" height="4" viewBox="0 0 24 4" fill="none" xmlns="http://www.w3.org/2000/svg">
<path d="M2.75 0.125C1.71875 0.125 0.875 0.96875 0.875 2C0.875 3.03125 1.71875 3.875 2.75 3.875C3.78125 3.875 4.625 3.03125 4.625 2C4.625 0.96875 3.78125 0.125 2.75 0.125ZM21.5 0.125C20.4688 0.125 19.625 0.96875 19.625 2C19.625 3.03125 20.4688 3.875 21.5 3.875C22.5312 3.875 23.375 3.03125 23.375 2C23.375 0.96875 22.5312 0.125 21.5 0.125ZM12.125 0.125C11.0938 0.125 10.25 0.96875 10.25 2C10.25 3.03125 11.0938 3.875 12.125 3.875C13.1562 3.875 14 3.03125 14 2C14 0.96875 13.1562 0.125 12.125 0.125Z" fill="black"/>
</svg>
