<svg width="23" height="23" viewBox="0 0 23 23" fill="none" xmlns="http://www.w3.org/2000/svg">
<path d="M5.625 4.5V1.125C5.625 0.503685 6.12868 0 6.75 0H15.75C16.3713 0 16.875 0.503685 16.875 1.125V4.5H21.375C21.9963 4.5 22.5 5.00368 22.5 5.625V21.375C22.5 21.9963 21.9963 22.5 21.375 22.5H1.125C0.503685 22.5 0 21.9963 0 21.375V5.625C0 5.00368 0.503685 4.5 1.125 4.5H5.625ZM2.25 16.875V20.25H20.25V16.875H2.25ZM2.25 14.625H20.25V6.75H2.25V14.625ZM7.875 2.25V4.5H14.625V2.25H7.875ZM10.125 11.25H12.375V13.5H10.125V11.25Z" fill="#A6A3A4"/>
</svg>
