<svg width="24" height="24" viewBox="0 0 24 24" fill="none" xmlns="http://www.w3.org/2000/svg">
<path d="M0.625 12C0.625 12.6904 1.18465 13.25 1.875 13.25H9.375C10.0654 13.25 10.625 12.6904 10.625 12V2C10.625 1.30965 10.0654 0.75 9.375 0.75H1.875C1.18465 0.75 0.625 1.30965 0.625 2V12ZM0.625 22C0.625 22.6904 1.18465 23.25 1.875 23.25H9.375C10.0654 23.25 10.625 22.6904 10.625 22V17C10.625 16.3096 10.0654 15.75 9.375 15.75H1.875C1.18465 15.75 0.625 16.3096 0.625 17V22ZM13.125 22C13.125 22.6904 13.6846 23.25 14.375 23.25H21.875C22.5654 23.25 23.125 22.6904 23.125 22V12C23.125 11.3096 22.5654 10.75 21.875 10.75H14.375C13.6846 10.75 13.125 11.3096 13.125 12V22ZM14.375 0.75C13.6846 0.75 13.125 1.30965 13.125 2V7C13.125 7.69035 13.6846 8.25 14.375 8.25H21.875C22.5654 8.25 23.125 7.69035 23.125 7V2C23.125 1.30965 22.5654 0.75 21.875 0.75H14.375Z" fill="white"/>
</svg>
